<?xml version="1.0" encoding="UTF-8"?>
<svg width="120" height="120" viewBox="0 0 120 120" xmlns="http://www.w3.org/2000/svg">
    <defs>
        <linearGradient id="logoGradient" x1="0%" y1="0%" x2="100%" y2="100%">
            <stop offset="0%" style="stop-color:#67C090"/>
            <stop offset="100%" style="stop-color:#67C090"/>
        </linearGradient>
    </defs>
    <circle cx="60" cy="60" r="55" fill="url(#logoGradient)"/>
    <g fill="white">
        <path d="M45,40 L75,40 C77.76,40 80,42.24 80,45 L80,75 C80,77.76 77.76,80 75,80 L45,80 C42.24,80 40,77.76 40,75 L40,45 C40,42.24 42.24,40 45,40 Z M50,50 L70,50 L70,70 L50,70 Z"/>
        <circle cx="60" cy="35" r="5"/>
        <circle cx="85" cy="60" r="5"/>
        <circle cx="60" cy="85" r="5"/>
        <circle cx="35" cy="60" r="5"/>
    </g>
</svg>
