<?xml version="1.0" encoding="UTF-8"?>
<svg width="24" height="24" viewBox="0 0 24 24" xmlns="http://www.w3.org/2000/svg">
    <path d="M3 4C3 2.89543 3.89543 2 5 2H19C20.1046 2 21 2.89543 21 4V20C21 21.1046 20.1046 22 19 22H5C3.89543 22 3 21.1046 3 20V4Z" fill="#67C090" opacity="0.2"/>
    <path d="M15 14C15 14.5523 14.5523 15 14 15H6C5.44772 15 5 14.5523 5 14V6C5 5.44772 5.44772 5 6 5H14C14.5523 5 15 5.44772 15 6V14Z" fill="#67C090"/>
    <path d="M19 5H16V7H19V19H7V16H5V19C5 20.1046 5.89543 21 7 21H19C20.1046 21 21 20.1046 21 19V7C21 5.89543 20.1046 5 19 5Z" fill="#67C090"/>
</svg>
